HIERARCHY
ROOT Hips
{
    OFFSET 0.000000 0.000000 0.000000
    CHANNELS 6 Xposition Yposition Zposition Zrotation Xrotation Yrotation
    JOINT Spine
    {
        OFFSET 0.000001 8.281923 0.000004
        CHANNELS 3 Zrotation Xrotation Yrotation
        JOINT Spine1
        {
            OFFSET -0.000004 23.973854 -0.000009
            CHANNELS 3 Zrotation Xrotation Yrotation
            JOINT Neck
            {
                OFFSET -0.000000 26.668362 0.000000
                CHANNELS 3 Zrotation Xrotation Yrotation
                JOINT Head
                {
                    OFFSET -0.000001 16.369625 2.035154
                    CHANNELS 3 Zrotation Xrotation Yrotation
                    End Site
                    {
                        OFFSET 0.000000 20.351660 0.000000
                    }
                }
            }
            JOINT LeftShoulder
            {
                OFFSET 4.036575 20.304850 -0.371899
                CHANNELS 3 Zrotation Xrotation Yrotation
                JOINT LeftArm
                {
                    OFFSET 12.502554 0.000004 0.000009
                    CHANNELS 3 Zrotation Xrotation Yrotation
                    JOINT LeftForeArm
                    {
                        OFFSET 31.806910 -0.000001 0.000006
                        CHANNELS 3 Zrotation Xrotation Yrotation
                        JOINT LeftHand
                        {
                            OFFSET 24.843231 -0.000000 0.000000
                            CHANNELS 3 Zrotation Xrotation Yrotation
                            JOINT LeftHandThumb1
                            {
                                OFFSET 2.126752 -2.416754 3.383463
                                CHANNELS 3 Zrotation Xrotation Yrotation
                                JOINT LeftHandThumb2
                                {
                                    OFFSET 3.212131 0.000003 0.000002
                                    CHANNELS 3 Zrotation Xrotation Yrotation
                                    JOINT LeftHandThumb3
                                    {
                                        OFFSET 2.745431 0.000005 0.000001
                                        CHANNELS 3 Zrotation Xrotation Yrotation
                                        End Site
                                        {
                                            OFFSET 2.793713 0.000000 0.000000
                                        }
                                    }
                                }
                            }
                            JOINT LeftHandIndex1
                            {
                                OFFSET 8.700339 -0.000006 3.383458
                                CHANNELS 3 Zrotation Xrotation Yrotation
                                JOINT LeftHandIndex2
                                {
                                    OFFSET 4.833529 0.000002 -0.000007
                                    CHANNELS 3 Zrotation Xrotation Yrotation
                                    JOINT LeftHandIndex3
                                    {
                                        OFFSET 2.416755 0.000004 0.000003
                                        CHANNELS 3 Zrotation Xrotation Yrotation
                                        End Site
                                        {
                                            OFFSET 2.459254 0.000000 0.000000
                                        }
                                    }
                                }
                            }
                            JOINT LeftHandMiddle1
                            {
                                OFFSET 8.700336 -0.000001 1.121373
                                CHANNELS 3 Zrotation Xrotation Yrotation
                                JOINT LeftHandMiddle2
                                {
                                    OFFSET 5.316878 -0.000005 -0.000006
                                    CHANNELS 3 Zrotation Xrotation Yrotation
                                    JOINT LeftHandMiddle3
                                    {
                                        OFFSET 2.900107 0.000006 0.000005
                                        CHANNELS 3 Zrotation Xrotation Yrotation
                                        End Site
                                        {
                                            OFFSET 2.951103 0.000000 0.000000
                                        }
                                    }
                                }
                            }
                            JOINT LeftHandRing1
                            {
                                OFFSET 8.216981 -0.000006 -1.121378
                                CHANNELS 3 Zrotation Xrotation Yrotation
                                JOINT LeftHandRing2
                                {
                                    OFFSET 4.833529 0.000003 -0.000006
                                    CHANNELS 3 Zrotation Xrotation Yrotation
                                    JOINT LeftHandRing3
                                    {
                                        OFFSET 2.416755 0.000003 0.000004
                                        CHANNELS 3 Zrotation Xrotation Yrotation
                                        End Site
                                        {
                                            OFFSET 2.459254 0.000000 0.000000
                                        }
                                    }
                                }
                            }
                            JOINT LeftHandPinky1
                            {
                                OFFSET 7.733627 -0.000004 -3.383463
                                CHANNELS 3 Zrotation Xrotation Yrotation
                                JOINT LeftHandPinky2
                                {
                                    OFFSET 3.866807 -0.000000 0.000006
                                    CHANNELS 3 Zrotation Xrotation Yrotation
                                    JOINT LeftHandPinky3
                                    {
                                        OFFSET 1.933403 -0.000000 0.000003
                                        CHANNELS 3 Zrotation Xrotation Yrotation
                                        End Site
                                        {
                                            OFFSET 1.967405 0.000000 0.000000
                                        }
                                    }
                                }
                            }
                        }
                    }
                }
            }
            JOINT RightShoulder
            {
                OFFSET -4.036573 20.304850 -0.371916
                CHANNELS 3 Zrotation Xrotation Yrotation
                JOINT RightArm
                {
                    OFFSET -12.502546 0.000003 0.000011
                    CHANNELS 3 Zrotation Xrotation Yrotation
                    JOINT RightForeArm
                    {
                        OFFSET -31.806908 0.000000 0.000003
                        CHANNELS 3 Zrotation Xrotation Yrotation
                        JOINT RightHand
                        {
                            OFFSET -24.843231 0.000000 -0.000001
                            CHANNELS 3 Zrotation Xrotation Yrotation
                            JOINT RightHandThumb1
                            {
                                OFFSET -2.126749 -2.416758 3.383464
                                CHANNELS 3 Zrotation Xrotation Yrotation
                                JOINT RightHandThumb2
                                {
                                    OFFSET -3.212134 0.000004 -0.000001
                                    CHANNELS 3 Zrotation Xrotation Yrotation
                                    JOINT RightHandThumb3
                                    {
                                        OFFSET -2.745440 -0.000003 0.000001
                                        CHANNELS 3 Zrotation Xrotation Yrotation
                                        End Site
                                        {
                                            OFFSET -2.793713 0.000000 0.000000
                                        }
                                    }
                                }
                            }
                            JOINT RightHandIndex1
                            {
                                OFFSET -8.700320 -0.000001 3.383456
                                CHANNELS 3 Zrotation Xrotation Yrotation
                                JOINT RightHandIndex2
                                {
                                    OFFSET -4.833521 0.000008 0.000009
                                    CHANNELS 3 Zrotation Xrotation Yrotation
                                    JOINT RightHandIndex3
                                    {
                                        OFFSET -2.416752 -0.000000 -0.000003
                                        CHANNELS 3 Zrotation Xrotation Yrotation
                                        End Site
                                        {
                                            OFFSET -2.459254 0.000000 0.000000
                                        }
                                    }
                                }
                            }
                            JOINT RightHandMiddle1
                            {
                                OFFSET -8.700326 -0.000004 1.121370
                                CHANNELS 3 Zrotation Xrotation Yrotation
                                JOINT RightHandMiddle2
                                {
                                    OFFSET -5.316868 -0.000003 -0.000004
                                    CHANNELS 3 Zrotation Xrotation Yrotation
                                    JOINT RightHandMiddle3
                                    {
                                        OFFSET -2.900111 0.000000 0.000001
                                        CHANNELS 3 Zrotation Xrotation Yrotation
                                        End Site
                                        {
                                            OFFSET -2.951103 0.000000 0.000000
                                        }
                                    }
                                }
                            }
                            JOINT RightHandRing1
                            {
                                OFFSET -8.216986 0.000000 -1.121368
                                CHANNELS 3 Zrotation Xrotation Yrotation
                                JOINT RightHandRing2
                                {
                                    OFFSET -4.833525 0.000002 0.000007
                                    CHANNELS 3 Zrotation Xrotation Yrotation
                                    JOINT RightHandRing3
                                    {
                                        OFFSET -2.416752 0.000000 -0.000003
                                        CHANNELS 3 Zrotation Xrotation Yrotation
                                        End Site
                                        {
                                            OFFSET -2.459254 0.000000 0.000000
                                        }
                                    }
                                }
                            }
                            JOINT RightHandPinky1
                            {
                                OFFSET -7.733630 0.000002 -3.383458
                                CHANNELS 3 Zrotation Xrotation Yrotation
                                JOINT RightHandPinky2
                                {
                                    OFFSET -3.866810 -0.000001 -0.000004
                                    CHANNELS 3 Zrotation Xrotation Yrotation
                                    JOINT RightHandPinky3
                                    {
                                        OFFSET -1.933413 0.000001 0.000007
                                        CHANNELS 3 Zrotation Xrotation Yrotation
                                        End Site
                                        {
                                            OFFSET -1.967405 0.000000 0.000000
                                        }
                                    }
                                }
                            }
                        }
                    }
                }
            }
        }
    }
    JOINT LeftUpLeg
    {
        OFFSET 10.175824 -0.000003 -0.000004
        CHANNELS 3 Zrotation Xrotation Yrotation
        JOINT LeftLeg
        {
            OFFSET 0.000003 -42.882950 0.000007
            CHANNELS 3 Zrotation Xrotation Yrotation
            JOINT LeftFoot
            {
                OFFSET 0.000001 -39.006771 0.000001
                CHANNELS 3 Zrotation Xrotation Yrotation
                JOINT LeftToeBase
                {
                    OFFSET -0.000003 -6.614287 15.263732
                    CHANNELS 3 Zrotation Xrotation Yrotation
                    End Site
                    {
                        OFFSET 0.000000 0.000000 4.070332
                    }
                }
            }
        }
    }
    JOINT RightUpLeg
    {
        OFFSET -10.175825 0.000003 0.000004
        CHANNELS 3 Zrotation Xrotation Yrotation
        JOINT RightLeg
        {
            OFFSET 0.000000 -42.882950 0.000001
            CHANNELS 3 Zrotation Xrotation Yrotation
            JOINT RightFoot
            {
                OFFSET 0.000001 -39.006771 0.000001
                CHANNELS 3 Zrotation Xrotation Yrotation
                JOINT RightToeBase
                {
                    OFFSET -0.000001 -6.614287 15.263741
                    CHANNELS 3 Zrotation Xrotation Yrotation
                    End Site
                    {
                        OFFSET 0.000000 0.000000 4.070332
                    }
                }
            }
        }
    }
}
MOTION
Frames:    4
Frame Time:    0.002778
5.661784    90.234222    227.612549    6.738252    0.503294    -2.922874    0.716948    5.287930    3.944070    3.584709    5.278052    3.679965    7.768329    1.930437    -9.753748    7.768337    1.930437    -9.753751    -2.443546    -0.801741    -1.109415    -52.918152    15.241938    -23.561333    -5.065337    -5.023057    -133.596130    17.533566    7.525105    22.521082    47.448204    38.866428    -34.355030    -34.999996    0.000000    0.000009    -0.000000    0.000000    -0.000000    0.000003    10.000002    0.000002    -0.000000    0.000000    -0.000000    -0.000000    0.000000    -0.000000    -0.000000    0.000000    -0.000000    -0.000000    0.000000    -0.000000    -0.000000    0.000000    -0.000000    -0.000000    0.000000    -0.000000    -0.000000    0.000000    -0.000000    -0.000000    0.000000    -0.000000    0.000003    -10.000000    0.000000    -0.000000    0.000000    -0.000000    -0.000000    0.000000    -0.000000    -0.721529    -1.634697    5.076443    36.033298    -11.128480    43.266388    -22.342930    -14.009192    71.895195    -14.300391    11.616527    -37.734676    -47.448215    38.866428    34.355042    35.000008    -0.000001    -0.000007    -0.000000    0.000000    -0.000000    -0.000002    9.999994    0.000005    -0.000000    0.000000    -0.000000    -0.000000    0.000000    -0.000000    -0.000000    0.000000    -0.000000    -0.000000    0.000000    -0.000000    -0.000000    0.000000    -0.000000    -0.000000    0.000000    -0.000000    -0.000000    0.000000    -0.000000    -0.000000    0.000000    -0.000000    0.000002    -10.000009    0.000006    -0.000000    0.000000    -0.000000    -0.000000    0.000000    -0.000000    0.577399    -16.677324    -0.470097    0.000001    40.944180    -0.000000    -15.454215    -27.620646    -5.547296    -0.000000    -1.394427    -0.000000    -22.590891    -19.346600    -6.236179    -0.000001    44.835659    0.000001    19.936953    -24.559996    -16.687765    0.000000    -0.132070    0.000001    
5.653729    90.138908    227.615402    6.679528    0.436163    -2.899553    0.712569    5.318901    3.925673    3.562803    5.309086    3.661648    7.732614    1.944278    -9.713742    7.732606    1.944273    -9.713738    -2.446930    -0.794015    -1.095161    -52.933334    15.206653    -23.520380    -5.057130    -5.062137    -133.566879    17.549480    7.528058    22.508488    47.448227    38.866432    -34.355030    -35.000008    0.000000    -0.000007    -0.000000    0.000000    -0.000000    0.000006    10.000001    0.000005    -0.000000    0.000000    -0.000000    -0.000000    0.000000    -0.000000    -0.000000    0.000000    -0.000000    -0.000000    0.000000    -0.000000    -0.000000    0.000000    -0.000000    -0.000000    0.000000    -0.000000    -0.000000    0.000000    -0.000000    -0.000000    0.000000    -0.000000    0.000007    -9.999998    0.000002    -0.000000    0.000000    -0.000000    -0.000000    0.000000    -0.000000    -0.743186    -1.587891    5.053176    35.987923    -10.906282    43.254219    -22.471947    -14.083494    71.813637    -14.189252    11.497193    -37.669739    -47.448215    38.866432    34.355026    34.999996    -0.000003    0.000008    -0.000000    0.000000    -0.000000    -0.000002    9.999998    0.000007    -0.000000    0.000000    -0.000000    -0.000000    0.000000    -0.000000    -0.000000    0.000000    -0.000000    -0.000000    0.000000    -0.000000    -0.000000    0.000000    -0.000000    -0.000000    0.000000    -0.000000    -0.000000    0.000000    -0.000000    -0.000000    0.000000    -0.000000    -0.000000    -9.999997    -0.000003    -0.000000    0.000000    -0.000000    -0.000000    0.000000    -0.000000    0.638862    -16.811852    -0.477417    0.000000    41.376080    -0.000001    -15.441577    -27.821941    -5.615233    0.000001    -1.398680    0.000000    -22.581352    -19.453981    -6.247966    -0.000000    45.218426    -0.000002    19.966246    -24.656944    -16.574476    -0.000001    -0.145875    0.000006    
5.646048    90.043106    227.617569    6.616685    0.371060    -2.878992    0.708206    5.350167    3.913813    3.541001    5.340418    3.649863    7.711650    1.957214    -9.687990    7.711651    1.957214    -9.687989    -2.458608    -0.791769    -1.092359    -52.964119    15.173610    -23.473349    -5.029458    -5.086716    -133.539398    17.546949    7.527746    22.509754    47.448208    38.866428    -34.355030    -35.000008    0.000000    0.000006    -0.000000    0.000000    -0.000000    0.000003    10.000000    0.000005    -0.000000    0.000000    -0.000000    -0.000000    0.000000    -0.000000    -0.000000    0.000000    -0.000000    -0.000000    0.000000    -0.000000    -0.000000    0.000000    -0.000000    -0.000000    0.000000    -0.000000    -0.000000    0.000000    -0.000000    -0.000000    0.000000    -0.000000    0.000003    -9.999995    -0.000004    -0.000000    0.000000    -0.000000    -0.000000    0.000000    -0.000000    -0.722018    -1.558971    5.033699    35.956528    -10.713086    43.244415    -22.607449    -14.136176    71.721855    -14.076188    11.379454    -37.610844    -47.448227    38.866455    34.355038    34.999996    0.000001    -0.000001    -0.000000    0.000000    -0.000000    -0.000001    10.000009    -0.000008    -0.000000    0.000000    -0.000000    -0.000000    0.000000    -0.000000    -0.000000    0.000000    -0.000000    -0.000000    0.000000    -0.000000    -0.000000    0.000000    -0.000000    -0.000000    0.000000    -0.000000    -0.000000    0.000000    -0.000000    -0.000000    0.000000    -0.000000    -0.000002    -9.999993    -0.000009    -0.000000    0.000000    -0.000000    -0.000000    0.000000    -0.000000    0.704115    -16.947447    -0.483955    -0.000000    41.804760    0.000000    -15.424918    -28.023512    -5.678186    -0.000000    -1.405958    -0.000000    -22.571436    -19.561134    -6.256274    -0.000004    45.595142    0.000002    19.991493    -24.746845    -16.445852    0.000001    -0.161831    -0.000009    
5.638178    89.944992    227.619904    6.554027    0.300028    -2.862138    0.704241    5.382573    3.907614    3.521170    5.372876    3.643555    7.696873    1.965672    -9.642163    7.696875    1.965675    -9.642164    -2.462821    -0.785120    -1.111139    -52.990578    15.142964    -23.428818    -5.039835    -5.092106    -133.512375    17.530767    7.527887    22.530289    47.448215    38.866432    -34.355038    -34.999996    -0.000002    0.000004    -0.000000    0.000000    -0.000000    -0.000003    9.999998    -0.000002    -0.000000    0.000000    -0.000000    -0.000000    0.000000    -0.000000    -0.000000    0.000000    -0.000000    -0.000000    0.000000    -0.000000    -0.000000    0.000000    -0.000000    -0.000000    0.000000    -0.000000    -0.000000    0.000000    -0.000000    -0.000000    0.000000    -0.000000    0.000000    -10.000003    0.000000    -0.000000    0.000000    -0.000000    -0.000000    0.000000    -0.000000    -0.696514    -1.526893    5.016717    35.953243    -10.553551    43.229725    -22.736158    -14.135822    71.649048    -13.949010    11.259647    -37.574036    -47.448235    38.866432    34.355049    35.000004    -0.000008    0.000006    -0.000000    0.000000    -0.000000    -0.000002    9.999994    0.000004    -0.000000    0.000000    -0.000000    -0.000000    0.000000    -0.000000    -0.000000    0.000000    -0.000000    -0.000000    0.000000    -0.000000    -0.000000    0.000000    -0.000000    -0.000000    0.000000    -0.000000    -0.000000    0.000000    -0.000000    -0.000000    0.000000    -0.000000    0.000002    -10.000008    0.000004    -0.000000    0.000000    -0.000000    -0.000000    0.000000    -0.000000    0.770902    -17.078341    -0.484483    0.000000    42.239353    0.000000    -15.401834    -28.230259    -5.740962    0.000000    -1.424231    0.000000    -22.569044    -19.672213    -6.276786    0.000001    45.986416    0.000000    20.012177    -24.823847    -16.292135    0.000001    -0.176379    -0.000001    
